<svg width="143" height="48" viewBox="0 0 143 48" fill="none" xmlns="http://www.w3.org/2000/svg">
<path d="M2.76123 1.05908H0.888672C0.782878 1.05908 0.687663 1.02734 0.603027 0.963867C0.539551 0.879232 0.507812 0.784017 0.507812 0.678223C0.507812 0.55127 0.539551 0.456055 0.603027 0.392578C0.687663 0.307943 0.782878 0.265625 0.888672 0.265625H9.48975L12.5366 29.3696L16.4404 0.265625H25.0732C25.2002 0.265625 25.306 0.307943 25.3906 0.392578C25.4753 0.456055 25.5176 0.54069 25.5176 0.646484C25.5176 0.773438 25.4753 0.879232 25.3906 0.963867C25.306 1.02734 25.2002 1.05908 25.0732 1.05908H23.0103V47.1748H25.0732C25.1367 47.1748 25.179 47.196 25.2002 47.2383C25.2637 47.3441 25.2954 47.471 25.2954 47.6191C25.2954 47.7461 25.2743 47.8413 25.2319 47.9048C25.1896 47.9683 25.1367 48 25.0732 48H14.6313C14.5467 48 14.4621 47.9683 14.3774 47.9048C14.314 47.8201 14.2822 47.7144 14.2822 47.5874C14.2822 47.4604 14.314 47.3652 14.3774 47.3018C14.4621 47.2171 14.5467 47.1748 14.6313 47.1748H16.8213V3.12207L11.2354 46.8892C11.1507 47.4604 11.0767 47.7884 11.0132 47.873C10.9497 47.9577 10.8545 48 10.7275 48H8.66455C8.5376 48 8.44238 47.9577 8.37891 47.873C8.31543 47.7884 8.25195 47.4604 8.18848 46.8892L3.61816 3.56641V43.8105C3.61816 44.9108 3.72396 45.6831 3.93555 46.1274C4.16829 46.5718 4.55973 46.8892 5.10986 47.0796L6.53809 47.2065C6.64388 47.27 6.69678 47.397 6.69678 47.5874C6.69678 47.7567 6.66504 47.873 6.60156 47.9365C6.55924 47.9788 6.43229 48 6.2207 48H0.603027C0.518392 48 0.444336 47.9683 0.380859 47.9048C0.338542 47.8413 0.317383 47.7567 0.317383 47.6509C0.317383 47.5451 0.338542 47.471 0.380859 47.4287C0.444336 47.3652 0.634766 47.27 0.952148 47.1431C1.60807 46.8892 2.05241 46.5612 2.28516 46.1592C2.60254 45.609 2.76123 44.8262 2.76123 43.8105V1.05908ZM46.0573 0.932129H49.5803L55.2297 47.1748H56.6579C56.8907 47.3229 57.007 47.4604 57.007 47.5874C57.007 47.7144 56.8907 47.8519 56.6579 48H47.1047C46.9989 48 46.9143 47.9683 46.8508 47.9048C46.7873 47.8201 46.7556 47.7144 46.7556 47.5874C46.7556 47.4604 46.7873 47.3652 46.8508 47.3018C46.9143 47.2171 46.9989 47.1748 47.1047 47.1748H48.6281L47.8029 38.1611H42.0583L41.3601 43.271C41.3389 43.5461 41.3283 43.8317 41.3283 44.1279C41.3283 45.0589 41.4976 45.7677 41.8361 46.2544C42.1958 46.7199 42.6825 47.0055 43.2961 47.1113L43.8039 47.27C43.8885 47.3547 43.9309 47.4604 43.9309 47.5874C43.9309 47.7144 43.8885 47.8201 43.8039 47.9048C43.7404 47.9683 43.6558 48 43.55 48H38.1228C38.017 48 37.9217 47.9683 37.8371 47.9048C37.7736 47.8201 37.7419 47.7144 37.7419 47.5874C37.7419 47.4604 37.7736 47.3547 37.8371 47.27L38.218 47.1431C38.8316 47.0584 39.3076 46.7834 39.6462 46.3179C40.154 45.5773 40.5137 44.3501 40.7253 42.6362L46.0573 0.932129ZM45.2639 12.7705L42.1535 37.3359H47.7077L45.2639 12.7705ZM71.5482 1.05908H69.5805C69.3477 0.91097 69.2313 0.784017 69.2313 0.678223C69.2313 0.530111 69.3477 0.392578 69.5805 0.265625H87.1V17.9121C87.1 18.0179 87.0683 18.1025 87.0048 18.166C86.9413 18.2295 86.8567 18.2612 86.7509 18.2612C86.6239 18.2612 86.5287 18.2189 86.4652 18.1343C86.4018 18.0496 86.3594 17.7217 86.3383 17.1504C86.2325 14.5267 85.7881 11.7231 85.0053 8.73975C84.2224 5.73519 83.4818 3.69336 82.7836 2.61426C82.4239 2.06413 81.9901 1.67269 81.4823 1.43994C80.9745 1.18604 80.1916 1.05908 79.1337 1.05908H78.0546V23.4028C79.0491 23.3182 79.8954 22.7152 80.5937 21.5938C81.6516 19.8799 82.1806 17.2244 82.1806 13.6274V11.8818C82.1806 11.7549 82.2123 11.6597 82.2758 11.5962C82.3393 11.5327 82.4239 11.501 82.5297 11.501C82.6355 11.501 82.7201 11.5433 82.7836 11.6279C82.8471 11.6914 82.8788 11.776 82.8788 11.8818V35.6855C82.8788 35.8125 82.8471 35.9077 82.7836 35.9712C82.7201 36.0347 82.6355 36.0664 82.5297 36.0664L82.3075 35.9712C82.2229 35.8866 82.1806 35.7913 82.1806 35.6855V32.8608C82.1806 29.7928 81.6622 27.4548 80.6254 25.8467C79.9483 24.8099 79.0914 24.2703 78.0546 24.228V47.1748H80.0541C80.1599 47.1748 80.2445 47.2171 80.308 47.3018C80.3715 47.3652 80.4032 47.4604 80.4032 47.5874C80.4032 47.7144 80.3715 47.8201 80.308 47.9048C80.2445 47.9683 80.1599 48 80.0541 48H69.5805C69.4324 48 69.316 47.9577 69.2313 47.873C69.1467 47.7884 69.1044 47.6932 69.1044 47.5874C69.1044 47.4604 69.1467 47.3652 69.2313 47.3018C69.316 47.2171 69.4324 47.1748 69.5805 47.1748H71.5482V1.05908ZM102.086 1.05908H100.181C100.075 1.05908 99.9908 1.02734 99.9273 0.963867C99.8639 0.879232 99.8321 0.784017 99.8321 0.678223C99.8321 0.55127 99.8639 0.456055 99.9273 0.392578C99.9908 0.307943 100.075 0.265625 100.181 0.265625H110.496C110.602 0.265625 110.687 0.307943 110.75 0.392578C110.835 0.456055 110.877 0.54069 110.877 0.646484C110.877 0.773438 110.835 0.879232 110.75 0.963867C110.687 1.02734 110.602 1.05908 110.496 1.05908H108.592V47.1748H110.496C110.708 47.3229 110.814 47.4604 110.814 47.5874C110.814 47.7355 110.708 47.873 110.496 48H99.9273C99.6946 47.8519 99.5782 47.7144 99.5782 47.5874C99.5782 47.4604 99.6946 47.3229 99.9273 47.1748H102.086V1.05908ZM131.449 0.932129H134.971L140.621 47.1748H142.049C142.282 47.3229 142.398 47.4604 142.398 47.5874C142.398 47.7144 142.282 47.8519 142.049 48H132.496C132.39 48 132.305 47.9683 132.242 47.9048C132.179 47.8201 132.147 47.7144 132.147 47.5874C132.147 47.4604 132.179 47.3652 132.242 47.3018C132.305 47.2171 132.39 47.1748 132.496 47.1748H134.019L133.194 38.1611H127.45L126.751 43.271C126.73 43.5461 126.72 43.8317 126.72 44.1279C126.72 45.0589 126.889 45.7677 127.227 46.2544C127.587 46.7199 128.074 47.0055 128.687 47.1113L129.195 47.27C129.28 47.3547 129.322 47.4604 129.322 47.5874C129.322 47.7144 129.28 47.8201 129.195 47.9048C129.132 47.9683 129.047 48 128.941 48H123.514C123.408 48 123.313 47.9683 123.228 47.9048C123.165 47.8201 123.133 47.7144 123.133 47.5874C123.133 47.4604 123.165 47.3547 123.228 47.27L123.609 47.1431C124.223 47.0584 124.699 46.7834 125.037 46.3179C125.545 45.5773 125.905 44.3501 126.117 42.6362L131.449 0.932129ZM130.655 12.7705L127.545 37.3359H133.099L130.655 12.7705Z" fill="#FFFEFE"/>
</svg>
